<?xml version="1.0" encoding="UTF-8" standalone="no"?>
<!DOCTYPE svg PUBLIC "-//W3C//DTD SVG 1.1//EN"
 "http://www.w3.org/Graphics/SVG/1.1/DTD/svg11.dtd">
<!-- Generated by graphviz version 2.36.0 (20140111.2315)
 -->
<!-- Title: controllers_diagram Pages: 1 -->
<svg width="937pt" height="847pt"
 viewBox="0.00 0.00 937.44 846.57" xmlns="http://www.w3.org/2000/svg" xmlns:xlink="http://www.w3.org/1999/xlink">
<g id="graph0" class="graph" transform="scale(1 1) rotate(0) translate(4 842.569)">
<title>controllers_diagram</title>
<polygon fill="white" stroke="none" points="-4,4 -4,-842.569 933.44,-842.569 933.44,4 -4,4"/>
<!-- _diagram_info -->
<g id="node1" class="node"><title>_diagram_info</title>
<text text-anchor="start" x="762" y="-45.6" font-family="Times,serif" font-size="13.00">Controllers diagram</text>
<text text-anchor="start" x="762" y="-32.6" font-family="Times,serif" font-size="13.00">Date: Jun 19 2014 &#45; 12:41</text>
<text text-anchor="start" x="762" y="-19.6" font-family="Times,serif" font-size="13.00">Generated by RailRoady 1.1.1</text>
<text text-anchor="start" x="762" y="-6.6" font-family="Times,serif" font-size="13.00">http://railroady.prestonlee.com</text>
</g>
<!-- ApplicationController -->
<g id="node2" class="node"><title>ApplicationController</title>
<path fill="none" stroke="black" d="M248.045,-371.812C248.045,-371.812 426.679,-371.812 426.679,-371.812 432.679,-371.812 438.679,-377.812 438.679,-383.812 438.679,-383.812 438.679,-449.812 438.679,-449.812 438.679,-455.812 432.679,-461.812 426.679,-461.812 426.679,-461.812 248.045,-461.812 248.045,-461.812 242.045,-461.812 236.045,-455.812 236.045,-449.812 236.045,-449.812 236.045,-383.812 236.045,-383.812 236.045,-377.812 242.045,-371.812 248.045,-371.812"/>
<text text-anchor="middle" x="337.362" y="-446.612" font-family="Times,serif" font-size="14.00">ApplicationController</text>
<polyline fill="none" stroke="black" points="236.045,-439.812 438.679,-439.812 "/>
<text text-anchor="start" x="244.045" y="-424.612" font-family="Times,serif" font-size="14.00">_one_time_conditions_valid_12?</text>
<polyline fill="none" stroke="black" points="236.045,-417.812 438.679,-417.812 "/>
<polyline fill="none" stroke="black" points="236.045,-393.812 438.679,-393.812 "/>
<text text-anchor="start" x="244.045" y="-378.612" font-family="Times,serif" font-size="14.00">_layout</text>
</g>
<!-- ArchivesController -->
<g id="node3" class="node"><title>ArchivesController</title>
<path fill="none" stroke="black" d="M528.327,-683.988C528.327,-683.988 628.41,-683.988 628.41,-683.988 634.41,-683.988 640.41,-689.988 640.41,-695.988 640.41,-695.988 640.41,-789.988 640.41,-789.988 640.41,-795.988 634.41,-801.988 628.41,-801.988 628.41,-801.988 528.327,-801.988 528.327,-801.988 522.327,-801.988 516.327,-795.988 516.327,-789.988 516.327,-789.988 516.327,-695.988 516.327,-695.988 516.327,-689.988 522.327,-683.988 528.327,-683.988"/>
<text text-anchor="middle" x="578.368" y="-786.788" font-family="Times,serif" font-size="14.00">ArchivesController</text>
<polyline fill="none" stroke="black" points="516.327,-779.988 640.41,-779.988 "/>
<text text-anchor="start" x="524.327" y="-764.788" font-family="Times,serif" font-size="14.00">edit</text>
<text text-anchor="start" x="524.327" y="-750.788" font-family="Times,serif" font-size="14.00">index</text>
<text text-anchor="start" x="524.327" y="-736.788" font-family="Times,serif" font-size="14.00">undelete</text>
<polyline fill="none" stroke="black" points="516.327,-729.988 640.41,-729.988 "/>
<polyline fill="none" stroke="black" points="516.327,-705.988 640.41,-705.988 "/>
<text text-anchor="start" x="524.327" y="-690.788" font-family="Times,serif" font-size="14.00">_layout</text>
</g>
<!-- ApplicationController&#45;&gt;ArchivesController -->
<g id="edge1" class="edge"><title>ApplicationController&#45;&gt;ArchivesController</title>
<path fill="none" stroke="black" d="M390.12,-461.885C416.06,-485.622 446.7,-516.155 470.142,-546.998 502.6,-589.702 531.513,-643.319 551.272,-683.673"/>
</g>
<!-- ComparesController -->
<g id="node4" class="node"><title>ComparesController</title>
<path fill="none" stroke="black" d="M48.402,-0.5C48.402,-0.5 154.713,-0.5 154.713,-0.5 160.713,-0.5 166.713,-6.5 166.713,-12.5 166.713,-12.5 166.713,-218.5 166.713,-218.5 166.713,-224.5 160.713,-230.5 154.713,-230.5 154.713,-230.5 48.402,-230.5 48.402,-230.5 42.402,-230.5 36.402,-224.5 36.402,-218.5 36.402,-218.5 36.402,-12.5 36.402,-12.5 36.402,-6.5 42.402,-0.5 48.402,-0.5"/>
<text text-anchor="middle" x="101.557" y="-215.3" font-family="Times,serif" font-size="14.00">ComparesController</text>
<polyline fill="none" stroke="black" points="36.402,-208.5 166.713,-208.5 "/>
<text text-anchor="start" x="44.402" y="-193.3" font-family="Times,serif" font-size="14.00">attr_form</text>
<text text-anchor="start" x="44.402" y="-179.3" font-family="Times,serif" font-size="14.00">attr_set</text>
<text text-anchor="start" x="44.402" y="-165.3" font-family="Times,serif" font-size="14.00">complete</text>
<text text-anchor="start" x="44.402" y="-151.3" font-family="Times,serif" font-size="14.00">create</text>
<text text-anchor="start" x="44.402" y="-137.3" font-family="Times,serif" font-size="14.00">destroy</text>
<text text-anchor="start" x="44.402" y="-123.3" font-family="Times,serif" font-size="14.00">edit</text>
<text text-anchor="start" x="44.402" y="-109.3" font-family="Times,serif" font-size="14.00">export</text>
<text text-anchor="start" x="44.402" y="-95.3" font-family="Times,serif" font-size="14.00">index</text>
<text text-anchor="start" x="44.402" y="-81.3" font-family="Times,serif" font-size="14.00">new</text>
<text text-anchor="start" x="44.402" y="-67.3" font-family="Times,serif" font-size="14.00">show</text>
<text text-anchor="start" x="44.402" y="-53.3" font-family="Times,serif" font-size="14.00">update</text>
<polyline fill="none" stroke="black" points="36.402,-46.5 166.713,-46.5 "/>
<polyline fill="none" stroke="black" points="36.402,-22.5 166.713,-22.5 "/>
<text text-anchor="start" x="44.402" y="-7.3" font-family="Times,serif" font-size="14.00">_layout</text>
</g>
<!-- ApplicationController&#45;&gt;ComparesController -->
<g id="edge2" class="edge"><title>ApplicationController&#45;&gt;ComparesController</title>
<path fill="none" stroke="black" d="M302.06,-371.702C266.406,-326.145 210.502,-254.71 166.772,-198.831"/>
</g>
<!-- EventsController -->
<g id="node5" class="node"><title>EventsController</title>
<path fill="none" stroke="black" d="M243.463,-710.428C243.463,-710.428 331.111,-710.428 331.111,-710.428 337.111,-710.428 343.111,-716.428 343.111,-722.428 343.111,-722.428 343.111,-802.428 343.111,-802.428 343.111,-808.428 337.111,-814.428 331.111,-814.428 331.111,-814.428 243.463,-814.428 243.463,-814.428 237.463,-814.428 231.463,-808.428 231.463,-802.428 231.463,-802.428 231.463,-722.428 231.463,-722.428 231.463,-716.428 237.463,-710.428 243.463,-710.428"/>
<text text-anchor="middle" x="287.287" y="-799.228" font-family="Times,serif" font-size="14.00">EventsController</text>
<polyline fill="none" stroke="black" points="231.463,-792.428 343.111,-792.428 "/>
<text text-anchor="start" x="239.463" y="-777.228" font-family="Times,serif" font-size="14.00">index</text>
<text text-anchor="start" x="239.463" y="-763.228" font-family="Times,serif" font-size="14.00">reset</text>
<polyline fill="none" stroke="black" points="231.463,-756.428 343.111,-756.428 "/>
<polyline fill="none" stroke="black" points="231.463,-732.428 343.111,-732.428 "/>
<text text-anchor="start" x="239.463" y="-717.228" font-family="Times,serif" font-size="14.00">_layout</text>
</g>
<!-- ApplicationController&#45;&gt;EventsController -->
<g id="edge3" class="edge"><title>ApplicationController&#45;&gt;EventsController</title>
<path fill="none" stroke="black" d="M330.815,-461.995C321.55,-525.945 304.651,-642.58 294.858,-710.174"/>
</g>
<!-- LoadsController -->
<g id="node6" class="node"><title>LoadsController</title>
<path fill="none" stroke="black" d="M371.183,-550.198C371.183,-550.198 454.942,-550.198 454.942,-550.198 460.942,-550.198 466.942,-556.198 466.942,-562.198 466.942,-562.198 466.942,-698.198 466.942,-698.198 466.942,-704.198 460.942,-710.198 454.942,-710.198 454.942,-710.198 371.183,-710.198 371.183,-710.198 365.183,-710.198 359.183,-704.198 359.183,-698.198 359.183,-698.198 359.183,-562.198 359.183,-562.198 359.183,-556.198 365.183,-550.198 371.183,-550.198"/>
<text text-anchor="middle" x="413.063" y="-694.998" font-family="Times,serif" font-size="14.00">LoadsController</text>
<polyline fill="none" stroke="black" points="359.183,-688.198 466.942,-688.198 "/>
<text text-anchor="start" x="367.183" y="-672.998" font-family="Times,serif" font-size="14.00">down_load</text>
<text text-anchor="start" x="367.183" y="-658.998" font-family="Times,serif" font-size="14.00">download</text>
<text text-anchor="start" x="367.183" y="-644.998" font-family="Times,serif" font-size="14.00">index</text>
<text text-anchor="start" x="367.183" y="-630.998" font-family="Times,serif" font-size="14.00">new</text>
<text text-anchor="start" x="367.183" y="-616.998" font-family="Times,serif" font-size="14.00">show</text>
<text text-anchor="start" x="367.183" y="-602.998" font-family="Times,serif" font-size="14.00">up_load</text>
<polyline fill="none" stroke="black" points="359.183,-596.198 466.942,-596.198 "/>
<polyline fill="none" stroke="black" points="359.183,-572.198 466.942,-572.198 "/>
<text text-anchor="start" x="367.183" y="-556.998" font-family="Times,serif" font-size="14.00">_layout</text>
</g>
<!-- ApplicationController&#45;&gt;LoadsController -->
<g id="edge4" class="edge"><title>ApplicationController&#45;&gt;LoadsController</title>
<path fill="none" stroke="black" d="M353.416,-462.065C362.487,-487.634 374.091,-520.344 384.649,-550.105"/>
</g>
<!-- NoderelationsController -->
<g id="node7" class="node"><title>NoderelationsController</title>
<path fill="none" stroke="black" d="M12,-664.069C12,-664.069 140.076,-664.069 140.076,-664.069 146.076,-664.069 152.076,-670.069 152.076,-676.069 152.076,-676.069 152.076,-826.069 152.076,-826.069 152.076,-832.069 146.076,-838.069 140.076,-838.069 140.076,-838.069 12,-838.069 12,-838.069 6,-838.069 0,-832.069 0,-826.069 0,-826.069 0,-676.069 0,-676.069 0,-670.069 6,-664.069 12,-664.069"/>
<text text-anchor="middle" x="76.0381" y="-822.869" font-family="Times,serif" font-size="14.00">NoderelationsController</text>
<polyline fill="none" stroke="black" points="0,-816.069 152.076,-816.069 "/>
<text text-anchor="start" x="8" y="-800.869" font-family="Times,serif" font-size="14.00">accumulate_node_form</text>
<text text-anchor="start" x="8" y="-786.869" font-family="Times,serif" font-size="14.00">create</text>
<text text-anchor="start" x="8" y="-772.869" font-family="Times,serif" font-size="14.00">edit</text>
<text text-anchor="start" x="8" y="-758.869" font-family="Times,serif" font-size="14.00">new</text>
<text text-anchor="start" x="8" y="-744.869" font-family="Times,serif" font-size="14.00">node_form</text>
<text text-anchor="start" x="8" y="-730.869" font-family="Times,serif" font-size="14.00">reset_form</text>
<text text-anchor="start" x="8" y="-716.869" font-family="Times,serif" font-size="14.00">update</text>
<polyline fill="none" stroke="black" points="0,-710.069 152.076,-710.069 "/>
<polyline fill="none" stroke="black" points="0,-686.069 152.076,-686.069 "/>
<text text-anchor="start" x="8" y="-670.869" font-family="Times,serif" font-size="14.00">_layout</text>
</g>
<!-- ApplicationController&#45;&gt;NoderelationsController -->
<g id="edge5" class="edge"><title>ApplicationController&#45;&gt;NoderelationsController</title>
<path fill="none" stroke="black" d="M302.729,-462.21C268.511,-506.944 214.562,-577.147 167.163,-637.41 160.362,-646.058 153.241,-655.048 146.105,-664.015"/>
</g>
<!-- NodesController -->
<g id="node8" class="node"><title>NodesController</title>
<path fill="none" stroke="black" d="M66.646,-432.21C66.646,-432.21 151.963,-432.21 151.963,-432.21 157.963,-432.21 163.963,-438.21 163.963,-444.21 163.963,-444.21 163.963,-622.21 163.963,-622.21 163.963,-628.21 157.963,-634.21 151.963,-634.21 151.963,-634.21 66.646,-634.21 66.646,-634.21 60.646,-634.21 54.646,-628.21 54.646,-622.21 54.646,-622.21 54.646,-444.21 54.646,-444.21 54.646,-438.21 60.646,-432.21 66.646,-432.21"/>
<text text-anchor="middle" x="109.305" y="-619.01" font-family="Times,serif" font-size="14.00">NodesController</text>
<polyline fill="none" stroke="black" points="54.646,-612.21 163.963,-612.21 "/>
<text text-anchor="start" x="62.646" y="-597.01" font-family="Times,serif" font-size="14.00">create</text>
<text text-anchor="start" x="62.646" y="-583.01" font-family="Times,serif" font-size="14.00">destroy</text>
<text text-anchor="start" x="62.646" y="-569.01" font-family="Times,serif" font-size="14.00">edit</text>
<text text-anchor="start" x="62.646" y="-555.01" font-family="Times,serif" font-size="14.00">index</text>
<text text-anchor="start" x="62.646" y="-541.01" font-family="Times,serif" font-size="14.00">new</text>
<text text-anchor="start" x="62.646" y="-527.01" font-family="Times,serif" font-size="14.00">node_filter</text>
<text text-anchor="start" x="62.646" y="-513.01" font-family="Times,serif" font-size="14.00">node_form</text>
<text text-anchor="start" x="62.646" y="-499.01" font-family="Times,serif" font-size="14.00">show</text>
<text text-anchor="start" x="62.646" y="-485.01" font-family="Times,serif" font-size="14.00">update</text>
<polyline fill="none" stroke="black" points="54.646,-478.21 163.963,-478.21 "/>
<polyline fill="none" stroke="black" points="54.646,-454.21 163.963,-454.21 "/>
<text text-anchor="start" x="62.646" y="-439.01" font-family="Times,serif" font-size="14.00">_layout</text>
</g>
<!-- ApplicationController&#45;&gt;NodesController -->
<g id="edge6" class="edge"><title>ApplicationController&#45;&gt;NodesController</title>
<path fill="none" stroke="black" d="M249.189,-461.814C220.611,-476.4 189.746,-492.154 164.297,-505.142"/>
</g>
<!-- RelationsController -->
<g id="node9" class="node"><title>RelationsController</title>
<path fill="none" stroke="black" d="M522.88,-348.266C522.88,-348.266 625.308,-348.266 625.308,-348.266 631.308,-348.266 637.308,-354.266 637.308,-360.266 637.308,-360.266 637.308,-510.266 637.308,-510.266 637.308,-516.266 631.308,-522.266 625.308,-522.266 625.308,-522.266 522.88,-522.266 522.88,-522.266 516.88,-522.266 510.88,-516.266 510.88,-510.266 510.88,-510.266 510.88,-360.266 510.88,-360.266 510.88,-354.266 516.88,-348.266 522.88,-348.266"/>
<text text-anchor="middle" x="574.094" y="-507.066" font-family="Times,serif" font-size="14.00">RelationsController</text>
<polyline fill="none" stroke="black" points="510.88,-500.266 637.308,-500.266 "/>
<text text-anchor="start" x="518.88" y="-485.066" font-family="Times,serif" font-size="14.00">create</text>
<text text-anchor="start" x="518.88" y="-471.066" font-family="Times,serif" font-size="14.00">destroy</text>
<text text-anchor="start" x="518.88" y="-457.066" font-family="Times,serif" font-size="14.00">edit</text>
<text text-anchor="start" x="518.88" y="-443.066" font-family="Times,serif" font-size="14.00">index</text>
<text text-anchor="start" x="518.88" y="-429.066" font-family="Times,serif" font-size="14.00">new</text>
<text text-anchor="start" x="518.88" y="-415.066" font-family="Times,serif" font-size="14.00">show</text>
<text text-anchor="start" x="518.88" y="-401.066" font-family="Times,serif" font-size="14.00">update</text>
<polyline fill="none" stroke="black" points="510.88,-394.266 637.308,-394.266 "/>
<polyline fill="none" stroke="black" points="510.88,-370.266 637.308,-370.266 "/>
<text text-anchor="start" x="518.88" y="-355.066" font-family="Times,serif" font-size="14.00">_layout</text>
</g>
<!-- ApplicationController&#45;&gt;RelationsController -->
<g id="edge7" class="edge"><title>ApplicationController&#45;&gt;RelationsController</title>
<path fill="none" stroke="black" d="M438.788,-424.718C463.259,-426.626 488.717,-428.611 510.86,-430.337"/>
</g>
<!-- ReltypesController -->
<g id="node10" class="node"><title>ReltypesController</title>
<path fill="none" stroke="black" d="M55.225,-239.391C55.225,-239.391 153.763,-239.391 153.763,-239.391 159.763,-239.391 165.763,-245.391 165.763,-251.391 165.763,-251.391 165.763,-401.391 165.763,-401.391 165.763,-407.391 159.763,-413.391 153.763,-413.391 153.763,-413.391 55.225,-413.391 55.225,-413.391 49.225,-413.391 43.225,-407.391 43.225,-401.391 43.225,-401.391 43.225,-251.391 43.225,-251.391 43.225,-245.391 49.225,-239.391 55.225,-239.391"/>
<text text-anchor="middle" x="104.494" y="-398.191" font-family="Times,serif" font-size="14.00">ReltypesController</text>
<polyline fill="none" stroke="black" points="43.225,-391.391 165.763,-391.391 "/>
<text text-anchor="start" x="51.225" y="-376.191" font-family="Times,serif" font-size="14.00">create</text>
<text text-anchor="start" x="51.225" y="-362.191" font-family="Times,serif" font-size="14.00">destroy</text>
<text text-anchor="start" x="51.225" y="-348.191" font-family="Times,serif" font-size="14.00">edit</text>
<text text-anchor="start" x="51.225" y="-334.191" font-family="Times,serif" font-size="14.00">index</text>
<text text-anchor="start" x="51.225" y="-320.191" font-family="Times,serif" font-size="14.00">new</text>
<text text-anchor="start" x="51.225" y="-306.191" font-family="Times,serif" font-size="14.00">show</text>
<text text-anchor="start" x="51.225" y="-292.191" font-family="Times,serif" font-size="14.00">update</text>
<polyline fill="none" stroke="black" points="43.225,-285.391 165.763,-285.391 "/>
<polyline fill="none" stroke="black" points="43.225,-261.391 165.763,-261.391 "/>
<text text-anchor="start" x="51.225" y="-246.191" font-family="Times,serif" font-size="14.00">_layout</text>
</g>
<!-- ApplicationController&#45;&gt;ReltypesController -->
<g id="edge8" class="edge"><title>ApplicationController&#45;&gt;ReltypesController</title>
<path fill="none" stroke="black" d="M235.9,-377.415C212.123,-368.183 187.498,-358.621 166.082,-350.305"/>
</g>
<!-- TypeRelationsController -->
<g id="node11" class="node"><title>TypeRelationsController</title>
<path fill="none" stroke="black" d="M504.55,-108.14C504.55,-108.14 634.765,-108.14 634.765,-108.14 640.765,-108.14 646.765,-114.14 646.765,-120.14 646.765,-120.14 646.765,-186.14 646.765,-186.14 646.765,-192.14 640.765,-198.14 634.765,-198.14 634.765,-198.14 504.55,-198.14 504.55,-198.14 498.55,-198.14 492.55,-192.14 492.55,-186.14 492.55,-186.14 492.55,-120.14 492.55,-120.14 492.55,-114.14 498.55,-108.14 504.55,-108.14"/>
<text text-anchor="middle" x="569.658" y="-182.94" font-family="Times,serif" font-size="14.00">TypeRelationsController</text>
<polyline fill="none" stroke="black" points="492.55,-176.14 646.765,-176.14 "/>
<text text-anchor="start" x="500.55" y="-160.94" font-family="Times,serif" font-size="14.00">index</text>
<polyline fill="none" stroke="black" points="492.55,-154.14 646.765,-154.14 "/>
<polyline fill="none" stroke="black" points="492.55,-130.14 646.765,-130.14 "/>
<text text-anchor="start" x="500.55" y="-114.94" font-family="Times,serif" font-size="14.00">_layout</text>
</g>
<!-- ApplicationController&#45;&gt;TypeRelationsController -->
<g id="edge9" class="edge"><title>ApplicationController&#45;&gt;TypeRelationsController</title>
<path fill="none" stroke="black" d="M377.031,-371.785C419.664,-323.393 487.044,-246.912 529.763,-198.423"/>
</g>
<!-- TypesController -->
<g id="node12" class="node"><title>TypesController</title>
<path fill="none" stroke="black" d="M300.484,-63.5295C300.484,-63.5295 383.265,-63.5295 383.265,-63.5295 389.265,-63.5295 395.265,-69.5295 395.265,-75.5295 395.265,-75.5295 395.265,-225.529 395.265,-225.529 395.265,-231.529 389.265,-237.529 383.265,-237.529 383.265,-237.529 300.484,-237.529 300.484,-237.529 294.484,-237.529 288.484,-231.529 288.484,-225.529 288.484,-225.529 288.484,-75.5295 288.484,-75.5295 288.484,-69.5295 294.484,-63.5295 300.484,-63.5295"/>
<text text-anchor="middle" x="341.875" y="-222.329" font-family="Times,serif" font-size="14.00">TypesController</text>
<polyline fill="none" stroke="black" points="288.484,-215.529 395.265,-215.529 "/>
<text text-anchor="start" x="296.484" y="-200.329" font-family="Times,serif" font-size="14.00">create</text>
<text text-anchor="start" x="296.484" y="-186.329" font-family="Times,serif" font-size="14.00">destroy</text>
<text text-anchor="start" x="296.484" y="-172.329" font-family="Times,serif" font-size="14.00">edit</text>
<text text-anchor="start" x="296.484" y="-158.329" font-family="Times,serif" font-size="14.00">index</text>
<text text-anchor="start" x="296.484" y="-144.329" font-family="Times,serif" font-size="14.00">new</text>
<text text-anchor="start" x="296.484" y="-130.329" font-family="Times,serif" font-size="14.00">show</text>
<text text-anchor="start" x="296.484" y="-116.329" font-family="Times,serif" font-size="14.00">update</text>
<polyline fill="none" stroke="black" points="288.484,-109.529 395.265,-109.529 "/>
<polyline fill="none" stroke="black" points="288.484,-85.5295 395.265,-85.5295 "/>
<text text-anchor="start" x="296.484" y="-70.3295" font-family="Times,serif" font-size="14.00">_layout</text>
</g>
<!-- ApplicationController&#45;&gt;TypesController -->
<g id="edge10" class="edge"><title>ApplicationController&#45;&gt;TypesController</title>
<path fill="none" stroke="black" d="M338.127,-371.641C338.747,-335.065 339.639,-282.456 340.397,-237.73"/>
</g>
</g>
</svg>
