<?xml version="1.0" encoding="UTF-8" standalone="no"?>
<!DOCTYPE svg PUBLIC "-//W3C//DTD SVG 1.1//EN"
 "http://www.w3.org/Graphics/SVG/1.1/DTD/svg11.dtd">
<!-- Generated by graphviz version 2.36.0 (20140111.2315)
 -->
<!-- Title: models_diagram Pages: 1 -->
<svg width="971pt" height="998pt"
 viewBox="0.00 0.00 971.00 998.00" xmlns="http://www.w3.org/2000/svg" xmlns:xlink="http://www.w3.org/1999/xlink">
<g id="graph0" class="graph" transform="scale(1 1) rotate(0) translate(4 994)">
<title>models_diagram</title>
<polygon fill="white" stroke="none" points="-4,4 -4,-994 967,-994 967,4 -4,4"/>
<!-- _diagram_info -->
<g id="node1" class="node"><title>_diagram_info</title>
<text text-anchor="start" x="8.27979" y="-926.6" font-family="Times,serif" font-size="13.00">Models diagram</text>
<text text-anchor="start" x="8.27979" y="-913.6" font-family="Times,serif" font-size="13.00">Date: Jun 19 2014 &#45; 12:41</text>
<text text-anchor="start" x="8.27979" y="-900.6" font-family="Times,serif" font-size="13.00">Generated by RailRoady 1.1.1</text>
<text text-anchor="start" x="8.27979" y="-887.6" font-family="Times,serif" font-size="13.00">http://railroady.prestonlee.com</text>
</g>
<!-- Arcprop -->
<g id="node2" class="node"><title>Arcprop</title>
<path fill="none" stroke="black" d="M205.481,-861C205.481,-861 370.519,-861 370.519,-861 376.519,-861 382.519,-867 382.519,-873 382.519,-873 382.519,-949 382.519,-949 382.519,-955 376.519,-961 370.519,-961 370.519,-961 205.481,-961 205.481,-961 199.481,-961 193.481,-955 193.481,-949 193.481,-949 193.481,-873 193.481,-873 193.481,-867 199.481,-861 205.481,-861"/>
<text text-anchor="middle" x="288" y="-945.8" font-family="Times,serif" font-size="14.00">Arcprop</text>
<polyline fill="none" stroke="black" points="193.481,-939 382.519,-939 "/>
<text text-anchor="start" x="201.481" y="-923.8" font-family="Times,serif" font-size="14.00">_id :BSON::ObjectId</text>
<text text-anchor="start" x="201.481" y="-909.8" font-family="Times,serif" font-size="14.00">_type :String</text>
<text text-anchor="start" x="201.481" y="-895.8" font-family="Times,serif" font-size="14.00">directed :Boolean</text>
<text text-anchor="start" x="201.481" y="-881.8" font-family="Times,serif" font-size="14.00">end :BSON::ObjectId</text>
<text text-anchor="start" x="201.481" y="-867.8" font-family="Times,serif" font-size="14.00">start :BSON::ObjectId</text>
</g>
<!-- Reltype -->
<g id="node11" class="node"><title>Reltype</title>
<path fill="none" stroke="black" d="M208.588,-681C208.588,-681 367.412,-681 367.412,-681 373.412,-681 379.412,-687 379.412,-693 379.412,-693 379.412,-783 379.412,-783 379.412,-789 373.412,-795 367.412,-795 367.412,-795 208.588,-795 208.588,-795 202.588,-795 196.588,-789 196.588,-783 196.588,-783 196.588,-693 196.588,-693 196.588,-687 202.588,-681 208.588,-681"/>
<text text-anchor="middle" x="288" y="-779.8" font-family="Times,serif" font-size="14.00">Reltype</text>
<polyline fill="none" stroke="black" points="196.588,-773 379.412,-773 "/>
<text text-anchor="start" x="204.588" y="-757.8" font-family="Times,serif" font-size="14.00">_id :BSON::ObjectId</text>
<text text-anchor="start" x="204.588" y="-743.8" font-family="Times,serif" font-size="14.00">_type :String</text>
<text text-anchor="start" x="204.588" y="-729.8" font-family="Times,serif" font-size="14.00">created_at :Time</text>
<text text-anchor="start" x="204.588" y="-715.8" font-family="Times,serif" font-size="14.00">desc :String</text>
<text text-anchor="start" x="204.588" y="-701.8" font-family="Times,serif" font-size="14.00">name :String</text>
<text text-anchor="start" x="204.588" y="-687.8" font-family="Times,serif" font-size="14.00">updated_at :Time</text>
</g>
<!-- Arcprop&#45;&gt;Reltype -->
<g id="edge1" class="edge"><title>Arcprop&#45;&gt;Reltype</title>
<path fill="none" stroke="#f5287a" d="M281.544,-850.895C281.208,-836.24 281.16,-820.439 281.401,-805.459"/>
<polygon fill="#f5287a" stroke="#f5287a" points="281.547,-851.002 277.331,-861.125 281.688,-856 281.829,-860.998 281.829,-860.998 281.829,-860.998 281.688,-856 286.328,-860.871 281.547,-851.002 281.547,-851.002"/>
<polygon fill="#f5287a" stroke="#f5287a" points="281.405,-805.241 286.113,-795.337 281.51,-800.242 281.614,-795.243 281.614,-795.243 281.614,-795.243 281.51,-800.242 277.115,-795.15 281.405,-805.241 281.405,-805.241"/>
</g>
<!-- Compare -->
<g id="node3" class="node"><title>Compare</title>
<path fill="none" stroke="black" d="M412.322,-833C412.322,-833 593.678,-833 593.678,-833 599.678,-833 605.678,-839 605.678,-845 605.678,-845 605.678,-977 605.678,-977 605.678,-983 599.678,-989 593.678,-989 593.678,-989 412.322,-989 412.322,-989 406.322,-989 400.322,-983 400.322,-977 400.322,-977 400.322,-845 400.322,-845 400.322,-839 406.322,-833 412.322,-833"/>
<text text-anchor="middle" x="503" y="-973.8" font-family="Times,serif" font-size="14.00">Compare</text>
<polyline fill="none" stroke="black" points="400.322,-967 605.678,-967 "/>
<text text-anchor="start" x="408.322" y="-951.8" font-family="Times,serif" font-size="14.00">_id :BSON::ObjectId</text>
<text text-anchor="start" x="408.322" y="-937.8" font-family="Times,serif" font-size="14.00">_type :String</text>
<text text-anchor="start" x="408.322" y="-923.8" font-family="Times,serif" font-size="14.00">created_at :Time</text>
<text text-anchor="start" x="408.322" y="-909.8" font-family="Times,serif" font-size="14.00">name :String</text>
<text text-anchor="start" x="408.322" y="-895.8" font-family="Times,serif" font-size="14.00">rel :BSON::ObjectId</text>
<text text-anchor="start" x="408.322" y="-881.8" font-family="Times,serif" font-size="14.00">rel_attr :BSON::ObjectId</text>
<text text-anchor="start" x="408.322" y="-867.8" font-family="Times,serif" font-size="14.00">updated_at :Time</text>
<text text-anchor="start" x="408.322" y="-853.8" font-family="Times,serif" font-size="14.00">x :BSON::ObjectId</text>
<text text-anchor="start" x="408.322" y="-839.8" font-family="Times,serif" font-size="14.00">y :BSON::ObjectId</text>
</g>
<!-- Event -->
<g id="node4" class="node"><title>Event</title>
<path fill="none" stroke="black" d="M635.588,-861C635.588,-861 794.412,-861 794.412,-861 800.412,-861 806.412,-867 806.412,-873 806.412,-873 806.412,-949 806.412,-949 806.412,-955 800.412,-961 794.412,-961 794.412,-961 635.588,-961 635.588,-961 629.588,-961 623.588,-955 623.588,-949 623.588,-949 623.588,-873 623.588,-873 623.588,-867 629.588,-861 635.588,-861"/>
<text text-anchor="middle" x="715" y="-945.8" font-family="Times,serif" font-size="14.00">Event</text>
<polyline fill="none" stroke="black" points="623.588,-939 806.412,-939 "/>
<text text-anchor="start" x="631.588" y="-923.8" font-family="Times,serif" font-size="14.00">_id :BSON::ObjectId</text>
<text text-anchor="start" x="631.588" y="-909.8" font-family="Times,serif" font-size="14.00">_type :String</text>
<text text-anchor="start" x="631.588" y="-895.8" font-family="Times,serif" font-size="14.00">created_at :Time</text>
<text text-anchor="start" x="631.588" y="-881.8" font-family="Times,serif" font-size="14.00">entry :String</text>
<text text-anchor="start" x="631.588" y="-867.8" font-family="Times,serif" font-size="14.00">updated_at :Time</text>
</g>
<!-- Node -->
<g id="node5" class="node"><title>Node</title>
<path fill="none" stroke="black" d="M409.588,-363C409.588,-363 568.412,-363 568.412,-363 574.412,-363 580.412,-369 580.412,-375 580.412,-375 580.412,-479 580.412,-479 580.412,-485 574.412,-491 568.412,-491 568.412,-491 409.588,-491 409.588,-491 403.588,-491 397.588,-485 397.588,-479 397.588,-479 397.588,-375 397.588,-375 397.588,-369 403.588,-363 409.588,-363"/>
<text text-anchor="middle" x="489" y="-475.8" font-family="Times,serif" font-size="14.00">Node</text>
<polyline fill="none" stroke="black" points="397.588,-469 580.412,-469 "/>
<text text-anchor="start" x="405.588" y="-453.8" font-family="Times,serif" font-size="14.00">_id :BSON::ObjectId</text>
<text text-anchor="start" x="405.588" y="-439.8" font-family="Times,serif" font-size="14.00">_type :String</text>
<text text-anchor="start" x="405.588" y="-425.8" font-family="Times,serif" font-size="14.00">created_at :Time</text>
<text text-anchor="start" x="405.588" y="-411.8" font-family="Times,serif" font-size="14.00">archived :Boolean</text>
<text text-anchor="start" x="405.588" y="-397.8" font-family="Times,serif" font-size="14.00">name :String</text>
<text text-anchor="start" x="405.588" y="-383.8" font-family="Times,serif" font-size="14.00">type_id :Object</text>
<text text-anchor="start" x="405.588" y="-369.8" font-family="Times,serif" font-size="14.00">updated_at :Time</text>
</g>
<!-- Propinstance -->
<g id="node8" class="node"><title>Propinstance</title>
<path fill="none" stroke="black" d="M303.588,-218C303.588,-218 462.412,-218 462.412,-218 468.412,-218 474.412,-224 474.412,-230 474.412,-230 474.412,-292 474.412,-292 474.412,-298 468.412,-304 462.412,-304 462.412,-304 303.588,-304 303.588,-304 297.588,-304 291.588,-298 291.588,-292 291.588,-292 291.588,-230 291.588,-230 291.588,-224 297.588,-218 303.588,-218"/>
<text text-anchor="middle" x="383" y="-288.8" font-family="Times,serif" font-size="14.00">Propinstance</text>
<polyline fill="none" stroke="black" points="291.588,-282 474.412,-282 "/>
<text text-anchor="start" x="299.588" y="-266.8" font-family="Times,serif" font-size="14.00">_id :BSON::ObjectId</text>
<text text-anchor="start" x="299.588" y="-252.8" font-family="Times,serif" font-size="14.00">_type :String</text>
<text text-anchor="start" x="299.588" y="-238.8" font-family="Times,serif" font-size="14.00">ref :BSON::ObjectId</text>
<text text-anchor="start" x="299.588" y="-224.8" font-family="Times,serif" font-size="14.00">value :String</text>
</g>
<!-- Node&#45;&gt;Propinstance -->
<g id="edge2" class="edge"><title>Node&#45;&gt;Propinstance</title>
<path fill="none" stroke="#976480" d="M436.871,-355.695C427.475,-341.392 418.045,-326.605 409.737,-313.121"/>
<ellipse fill="none" stroke="#976480" cx="439.221" cy="-359.255" rx="4.00002" ry="4.00002"/>
<polygon fill="#976480" stroke="#976480" points="409.663,-313.001 408.291,-302.122 407.057,-308.734 404.451,-304.467 404.451,-304.467 404.451,-304.467 407.057,-308.734 400.61,-306.813 409.663,-313.001 409.663,-313.001"/>
</g>
<!-- Relinstance -->
<g id="node9" class="node"><title>Relinstance</title>
<path fill="none" stroke="black" d="M504.543,-197C504.543,-197 687.457,-197 687.457,-197 693.457,-197 699.457,-203 699.457,-209 699.457,-209 699.457,-313 699.457,-313 699.457,-319 693.457,-325 687.457,-325 687.457,-325 504.543,-325 504.543,-325 498.543,-325 492.543,-319 492.543,-313 492.543,-313 492.543,-209 492.543,-209 492.543,-203 498.543,-197 504.543,-197"/>
<text text-anchor="middle" x="596" y="-309.8" font-family="Times,serif" font-size="14.00">Relinstance</text>
<polyline fill="none" stroke="black" points="492.543,-303 699.457,-303 "/>
<text text-anchor="start" x="500.543" y="-287.8" font-family="Times,serif" font-size="14.00">_id :BSON::ObjectId</text>
<text text-anchor="start" x="500.543" y="-273.8" font-family="Times,serif" font-size="14.00">_type :String</text>
<text text-anchor="start" x="500.543" y="-259.8" font-family="Times,serif" font-size="14.00">archived :Boolean</text>
<text text-anchor="start" x="500.543" y="-245.8" font-family="Times,serif" font-size="14.00">name :String</text>
<text text-anchor="start" x="500.543" y="-231.8" font-family="Times,serif" font-size="14.00">position :String</text>
<text text-anchor="start" x="500.543" y="-217.8" font-family="Times,serif" font-size="14.00">relnode :BSON::ObjectId</text>
<text text-anchor="start" x="500.543" y="-203.8" font-family="Times,serif" font-size="14.00">reltype :BSON::ObjectId</text>
</g>
<!-- Node&#45;&gt;Relinstance -->
<g id="edge3" class="edge"><title>Node&#45;&gt;Relinstance</title>
<path fill="none" stroke="#54a525" d="M528.214,-355.644C532.876,-348.381 537.691,-340.994 542.507,-333.717"/>
<ellipse fill="none" stroke="#54a525" cx="525.929" cy="-359.222" rx="4.00002" ry="4.00002"/>
<polygon fill="#54a525" stroke="#54a525" points="542.609,-333.562 551.897,-327.732 545.38,-329.4 548.151,-325.238 548.151,-325.238 548.151,-325.238 545.38,-329.4 544.405,-322.744 542.609,-333.562 542.609,-333.562"/>
</g>
<!-- Nodeset -->
<g id="node6" class="node"><title>Nodeset</title>
<polygon fill="none" stroke="black" points="824.062,-889 824.062,-933 885.938,-933 885.938,-889 824.062,-889"/>
<text text-anchor="middle" x="855" y="-917.8" font-family="Times,serif" font-size="14.00">Nodeset</text>
<polyline fill="none" stroke="black" points="824.062,-911 885.938,-911 "/>
<text text-anchor="middle" x="855" y="-895.8" font-family="Times,serif" font-size="14.00"> </text>
</g>
<!-- Property -->
<g id="node7" class="node"><title>Property</title>
<path fill="none" stroke="black" d="M208.588,-377C208.588,-377 367.412,-377 367.412,-377 373.412,-377 379.412,-383 379.412,-389 379.412,-389 379.412,-465 379.412,-465 379.412,-471 373.412,-477 367.412,-477 367.412,-477 208.588,-477 208.588,-477 202.588,-477 196.588,-471 196.588,-465 196.588,-465 196.588,-389 196.588,-389 196.588,-383 202.588,-377 208.588,-377"/>
<text text-anchor="middle" x="288" y="-461.8" font-family="Times,serif" font-size="14.00">Property</text>
<polyline fill="none" stroke="black" points="196.588,-455 379.412,-455 "/>
<text text-anchor="start" x="204.588" y="-439.8" font-family="Times,serif" font-size="14.00">_id :BSON::ObjectId</text>
<text text-anchor="start" x="204.588" y="-425.8" font-family="Times,serif" font-size="14.00">_type :String</text>
<text text-anchor="start" x="204.588" y="-411.8" font-family="Times,serif" font-size="14.00">name :String</text>
<text text-anchor="start" x="204.588" y="-397.8" font-family="Times,serif" font-size="14.00">name_prop :Boolean</text>
<text text-anchor="start" x="204.588" y="-383.8" font-family="Times,serif" font-size="14.00">proptype :String</text>
</g>
<!-- Property&#45;&gt;Reltype -->
<g id="edge5" class="edge"><title>Property&#45;&gt;Reltype</title>
<path fill="none" stroke="#fbb1f9" d="M293.454,-487.453C295.109,-539.853 295.179,-616.106 293.663,-670.512"/>
<polygon fill="#fbb1f9" stroke="#fbb1f9" points="293.449,-487.299 297.599,-477.149 293.275,-482.302 293.102,-477.305 293.102,-477.305 293.102,-477.305 293.275,-482.302 288.605,-477.461 293.449,-487.299 293.449,-487.299"/>
<polygon fill="#fbb1f9" stroke="#fbb1f9" points="293.658,-670.689 288.854,-680.546 293.505,-675.686 293.352,-680.684 293.352,-680.684 293.352,-680.684 293.505,-675.686 297.85,-680.821 293.658,-670.689 293.658,-670.689"/>
</g>
<!-- Type -->
<g id="node12" class="node"><title>Type</title>
<path fill="none" stroke="black" d="M336.588,-529C336.588,-529 495.412,-529 495.412,-529 501.412,-529 507.412,-535 507.412,-541 507.412,-541 507.412,-631 507.412,-631 507.412,-637 501.412,-643 495.412,-643 495.412,-643 336.588,-643 336.588,-643 330.588,-643 324.588,-637 324.588,-631 324.588,-631 324.588,-541 324.588,-541 324.588,-535 330.588,-529 336.588,-529"/>
<text text-anchor="middle" x="416" y="-627.8" font-family="Times,serif" font-size="14.00">Type</text>
<polyline fill="none" stroke="black" points="324.588,-621 507.412,-621 "/>
<text text-anchor="start" x="332.588" y="-605.8" font-family="Times,serif" font-size="14.00">_id :BSON::ObjectId</text>
<text text-anchor="start" x="332.588" y="-591.8" font-family="Times,serif" font-size="14.00">_type :String</text>
<text text-anchor="start" x="332.588" y="-577.8" font-family="Times,serif" font-size="14.00">created_at :Time</text>
<text text-anchor="start" x="332.588" y="-563.8" font-family="Times,serif" font-size="14.00">desc :String</text>
<text text-anchor="start" x="332.588" y="-549.8" font-family="Times,serif" font-size="14.00">type_ref :String</text>
<text text-anchor="start" x="332.588" y="-535.8" font-family="Times,serif" font-size="14.00">updated_at :Time</text>
</g>
<!-- Property&#45;&gt;Type -->
<g id="edge4" class="edge"><title>Property&#45;&gt;Type</title>
<path fill="none" stroke="#b5fedd" d="M340.991,-485C350.713,-496.612 360.777,-508.904 370.266,-520.748"/>
<polygon fill="#b5fedd" stroke="#b5fedd" points="340.767,-484.734 337.77,-474.186 337.547,-480.909 334.327,-477.084 334.327,-477.084 334.327,-477.084 337.547,-480.909 330.884,-479.982 340.767,-484.734 340.767,-484.734"/>
<polygon fill="#b5fedd" stroke="#b5fedd" points="370.421,-520.942 373.134,-531.567 373.537,-524.853 376.653,-528.763 376.653,-528.763 376.653,-528.763 373.537,-524.853 380.173,-525.958 370.421,-520.942 370.421,-520.942"/>
</g>
<!-- Propinstance&#45;&gt;Node -->
<g id="edge6" class="edge"><title>Propinstance&#45;&gt;Node</title>
<path fill="none" stroke="#a1709d" d="M422.135,-312.808C430.925,-325.794 440.248,-340.007 449.067,-353.841"/>
<polygon fill="#a1709d" stroke="#a1709d" points="422.081,-312.729 420.164,-301.932 419.264,-308.598 416.446,-304.467 416.446,-304.467 416.446,-304.467 419.264,-308.598 412.729,-307.003 422.081,-312.729 422.081,-312.729"/>
<polygon fill="#a1709d" stroke="#a1709d" points="449.26,-354.145 450.809,-365.001 451.935,-358.369 454.611,-362.593 454.611,-362.593 454.611,-362.593 451.935,-358.369 458.413,-360.185 449.26,-354.145 449.26,-354.145"/>
</g>
<!-- Relinstance&#45;&gt;Node -->
<g id="edge7" class="edge"><title>Relinstance&#45;&gt;Node</title>
<path fill="none" stroke="#fc6cb6" d="M555.885,-333.758C551.526,-340.535 547.043,-347.407 542.558,-354.185"/>
<polygon fill="#fc6cb6" stroke="#fc6cb6" points="555.945,-333.664 565.123,-327.662 558.638,-329.451 561.331,-325.238 561.331,-325.238 561.331,-325.238 558.638,-329.451 557.54,-322.814 555.945,-333.664 555.945,-333.664"/>
<polygon fill="#fc6cb6" stroke="#fc6cb6" points="542.503,-354.268 533.216,-360.1 539.733,-358.431 536.962,-362.593 536.962,-362.593 536.962,-362.593 539.733,-358.431 540.709,-365.087 542.503,-354.268 542.503,-354.268"/>
</g>
<!-- Relpropinstance -->
<g id="node10" class="node"><title>Relpropinstance</title>
<path fill="none" stroke="black" d="M516.588,-73C516.588,-73 675.412,-73 675.412,-73 681.412,-73 687.412,-79 687.412,-85 687.412,-85 687.412,-147 687.412,-147 687.412,-153 681.412,-159 675.412,-159 675.412,-159 516.588,-159 516.588,-159 510.588,-159 504.588,-153 504.588,-147 504.588,-147 504.588,-85 504.588,-85 504.588,-79 510.588,-73 516.588,-73"/>
<text text-anchor="middle" x="596" y="-143.8" font-family="Times,serif" font-size="14.00">Relpropinstance</text>
<polyline fill="none" stroke="black" points="504.588,-137 687.412,-137 "/>
<text text-anchor="start" x="512.588" y="-121.8" font-family="Times,serif" font-size="14.00">_id :BSON::ObjectId</text>
<text text-anchor="start" x="512.588" y="-107.8" font-family="Times,serif" font-size="14.00">_type :String</text>
<text text-anchor="start" x="512.588" y="-93.8" font-family="Times,serif" font-size="14.00">ref :BSON::ObjectId</text>
<text text-anchor="start" x="512.588" y="-79.8" font-family="Times,serif" font-size="14.00">value :String</text>
</g>
<!-- Relinstance&#45;&gt;Relpropinstance -->
<g id="edge8" class="edge"><title>Relinstance&#45;&gt;Relpropinstance</title>
<path fill="none" stroke="#042080" d="M596,-188.781C596,-182.312 596,-175.839 596,-169.576"/>
<ellipse fill="none" stroke="#042080" cx="596" cy="-192.862" rx="4" ry="4"/>
<polygon fill="#042080" stroke="#042080" points="596,-169.27 600.5,-159.27 596,-164.27 596,-159.27 596,-159.27 596,-159.27 596,-164.27 591.5,-159.27 596,-169.27 596,-169.27"/>
</g>
<!-- Relation -->
<g id="node14" class="node"><title>Relation</title>
<ellipse fill="none" stroke="black" cx="596" cy="-18" rx="40.1052" ry="18"/>
<text text-anchor="middle" x="596" y="-13.8" font-family="Times,serif" font-size="14.00">Relation</text>
</g>
<!-- Relpropinstance&#45;&gt;Relation -->
<g id="edge9" class="edge"><title>Relpropinstance&#45;&gt;Relation</title>
<path fill="none" stroke="#451876" d="M596,-62.8682C596,-57.1652 596,-51.5406 596,-46.3196"/>
<polygon fill="#451876" stroke="#451876" points="596,-62.893 591.5,-72.893 596,-67.893 596,-72.893 596,-72.893 596,-72.893 596,-67.893 600.5,-72.893 596,-62.893 596,-62.893"/>
<polygon fill="#451876" stroke="#451876" points="596,-46.2737 600.5,-36.2737 596,-41.2737 596,-36.2737 596,-36.2737 596,-36.2737 596,-41.2737 591.5,-36.2738 596,-46.2737 596,-46.2737"/>
</g>
<!-- Reltype&#45;&gt;Arcprop -->
<g id="edge11" class="edge"><title>Reltype&#45;&gt;Arcprop</title>
<path fill="none" stroke="#97c8cc" d="M294.568,-803.608C294.856,-819.815 294.802,-837.089 294.407,-852.901"/>
<ellipse fill="none" stroke="#97c8cc" cx="294.473" cy="-799.243" rx="4" ry="4"/>
<ellipse fill="#97c8cc" stroke="#97c8cc" cx="294.288" cy="-857" rx="4" ry="4"/>
</g>
<!-- Reltype&#45;&gt;Property -->
<g id="edge10" class="edge"><title>Reltype&#45;&gt;Property</title>
<path fill="none" stroke="#6ab5dc" d="M282.398,-672.663C280.821,-618.176 280.869,-540.674 282.542,-487.583"/>
<ellipse fill="none" stroke="#6ab5dc" cx="282.523" cy="-676.686" rx="4" ry="4"/>
<polygon fill="#6ab5dc" stroke="#6ab5dc" points="282.552,-487.299 287.395,-477.461 282.725,-482.302 282.898,-477.305 282.898,-477.305 282.898,-477.305 282.725,-482.302 278.401,-477.149 282.552,-487.299 282.552,-487.299"/>
</g>
<!-- Reltype&#45;&gt;Type -->
<g id="edge12" class="edge"><title>Reltype&#45;&gt;Type</title>
<path fill="none" stroke="#146d15" d="M341.238,-674.612C347.926,-666.775 354.775,-658.748 361.482,-650.889"/>
<ellipse fill="none" stroke="#146d15" cx="338.623" cy="-677.676" rx="4.00002" ry="4.00002"/>
<polygon fill="#146d15" stroke="#146d15" points="361.639,-650.705 371.553,-646.019 364.884,-646.901 368.13,-643.098 368.13,-643.098 368.13,-643.098 364.884,-646.901 364.707,-640.177 361.639,-650.705 361.639,-650.705"/>
</g>
<!-- Type&#45;&gt;Node -->
<g id="edge14" class="edge"><title>Type&#45;&gt;Node</title>
<path fill="none" stroke="#53711c" d="M445.654,-521.224C448.837,-514.379 452.092,-507.378 455.317,-500.442"/>
<ellipse fill="none" stroke="#53711c" cx="443.835" cy="-525.136" rx="4.00002" ry="4.00002"/>
<polygon fill="#53711c" stroke="#53711c" points="455.471,-500.11 463.768,-492.94 457.579,-495.576 459.687,-491.042 459.687,-491.042 459.687,-491.042 457.579,-495.576 455.607,-489.145 455.471,-500.11 455.471,-500.11"/>
</g>
<!-- Type&#45;&gt;Property -->
<g id="edge13" class="edge"><title>Type&#45;&gt;Property</title>
<path fill="none" stroke="#d770aa" d="M358.308,-522.364C348.039,-510.009 337.555,-497.106 327.912,-484.95"/>
<ellipse fill="none" stroke="#d770aa" cx="361.085" cy="-525.692" rx="4.00002" ry="4.00002"/>
<polygon fill="#d770aa" stroke="#d770aa" points="327.9,-484.935 325.241,-474.297 324.804,-481.01 321.707,-477.084 321.707,-477.084 321.707,-477.084 324.804,-481.01 318.174,-479.871 327.9,-484.935 327.9,-484.935"/>
</g>
<!-- Typeset -->
<g id="node13" class="node"><title>Typeset</title>
<polygon fill="none" stroke="black" points="904.33,-889 904.33,-933 963.67,-933 963.67,-889 904.33,-889"/>
<text text-anchor="middle" x="934" y="-917.8" font-family="Times,serif" font-size="14.00">Typeset</text>
<polyline fill="none" stroke="black" points="904.33,-911 963.67,-911 "/>
<text text-anchor="middle" x="934" y="-895.8" font-family="Times,serif" font-size="14.00"> </text>
</g>
</g>
</svg>
