<?xml version="1.0" encoding="UTF-8" standalone="no"?>
<!DOCTYPE svg PUBLIC "-//W3C//DTD SVG 1.1//EN"
 "http://www.w3.org/Graphics/SVG/1.1/DTD/svg11.dtd">
<!-- Generated by graphviz version 2.36.0 (20140111.2315)
 -->
<!-- Title: models_diagram Pages: 1 -->
<svg width="619pt" height="500pt"
 viewBox="0.00 0.00 619.00 500.00" xmlns="http://www.w3.org/2000/svg" xmlns:xlink="http://www.w3.org/1999/xlink">
<g id="graph0" class="graph" transform="scale(1 1) rotate(0) translate(4 496)">
<title>models_diagram</title>
<polygon fill="white" stroke="none" points="-4,4 -4,-496 615,-496 615,4 -4,4"/>
<!-- _diagram_info -->
<g id="node1" class="node"><title>_diagram_info</title>
<text text-anchor="start" x="7.27979" y="-477.6" font-family="Times,serif" font-size="13.00">Models diagram</text>
<text text-anchor="start" x="7.27979" y="-464.6" font-family="Times,serif" font-size="13.00">Date: Jun 19 2014 &#45; 12:41</text>
<text text-anchor="start" x="7.27979" y="-451.6" font-family="Times,serif" font-size="13.00">Generated by RailRoady 1.1.1</text>
<text text-anchor="start" x="7.27979" y="-438.6" font-family="Times,serif" font-size="13.00">http://railroady.prestonlee.com</text>
</g>
<!-- Arcprop -->
<g id="node2" class="node"><title>Arcprop</title>
<ellipse fill="none" stroke="black" cx="232" cy="-462" rx="39.3599" ry="18"/>
<text text-anchor="middle" x="232" y="-457.8" font-family="Times,serif" font-size="14.00">Arcprop</text>
</g>
<!-- Reltype -->
<g id="node11" class="node"><title>Reltype</title>
<ellipse fill="none" stroke="black" cx="232" cy="-378" rx="37.4191" ry="18"/>
<text text-anchor="middle" x="232" y="-373.8" font-family="Times,serif" font-size="14.00">Reltype</text>
</g>
<!-- Arcprop&#45;&gt;Reltype -->
<g id="edge1" class="edge"><title>Arcprop&#45;&gt;Reltype</title>
<path fill="none" stroke="#1f43b7" d="M225.596,-433.682C225.132,-424.821 225.135,-414.997 225.605,-406.148"/>
<polygon fill="#1f43b7" stroke="#1f43b7" points="225.624,-434.04 221.921,-444.362 226.016,-439.025 226.407,-444.01 226.407,-444.01 226.407,-444.01 226.016,-439.025 230.893,-443.657 225.624,-434.04 225.624,-434.04"/>
<polygon fill="#1f43b7" stroke="#1f43b7" points="225.621,-405.938 230.896,-396.323 226.015,-400.953 226.41,-395.969 226.41,-395.969 226.41,-395.969 226.015,-400.953 221.924,-395.614 225.621,-405.938 225.621,-405.938"/>
</g>
<!-- Compare -->
<g id="node3" class="node"><title>Compare</title>
<ellipse fill="none" stroke="black" cx="332" cy="-462" rx="42.2841" ry="18"/>
<text text-anchor="middle" x="332" y="-457.8" font-family="Times,serif" font-size="14.00">Compare</text>
</g>
<!-- Event -->
<g id="node4" class="node"><title>Event</title>
<ellipse fill="none" stroke="black" cx="423" cy="-462" rx="30.6005" ry="18"/>
<text text-anchor="middle" x="423" y="-457.8" font-family="Times,serif" font-size="14.00">Event</text>
</g>
<!-- Node -->
<g id="node5" class="node"><title>Node</title>
<ellipse fill="none" stroke="black" cx="320" cy="-234" rx="28.8958" ry="18"/>
<text text-anchor="middle" x="320" y="-229.8" font-family="Times,serif" font-size="14.00">Node</text>
</g>
<!-- Propinstance -->
<g id="node8" class="node"><title>Propinstance</title>
<ellipse fill="none" stroke="black" cx="258" cy="-162" rx="55.1843" ry="18"/>
<text text-anchor="middle" x="258" y="-157.8" font-family="Times,serif" font-size="14.00">Propinstance</text>
</g>
<!-- Node&#45;&gt;Propinstance -->
<g id="edge2" class="edge"><title>Node&#45;&gt;Propinstance</title>
<path fill="none" stroke="#93129c" d="M296.699,-213.596C288.908,-205.588 280.48,-196.21 273.41,-187.719"/>
<ellipse fill="none" stroke="#93129c" cx="299.764" cy="-216.671" rx="4.00002" ry="4.00002"/>
<polygon fill="#93129c" stroke="#93129c" points="273.396,-187.702 270.614,-177.095 270.255,-183.812 267.113,-179.923 267.113,-179.923 267.113,-179.923 270.255,-183.812 263.612,-182.75 273.396,-187.702 273.396,-187.702"/>
</g>
<!-- Relinstance -->
<g id="node9" class="node"><title>Relinstance</title>
<ellipse fill="none" stroke="black" cx="383" cy="-162" rx="51.0438" ry="18"/>
<text text-anchor="middle" x="383" y="-157.8" font-family="Times,serif" font-size="14.00">Relinstance</text>
</g>
<!-- Node&#45;&gt;Relinstance -->
<g id="edge3" class="edge"><title>Node&#45;&gt;Relinstance</title>
<path fill="none" stroke="#699642" d="M333.855,-210.551C340.352,-202.755 348.216,-194 355.773,-186.148"/>
<ellipse fill="none" stroke="#699642" cx="331.332" cy="-213.659" rx="4.00002" ry="4.00002"/>
<polygon fill="#699642" stroke="#699642" points="356.137,-185.78 366.367,-181.828 359.651,-182.223 363.165,-178.666 363.165,-178.666 363.165,-178.666 359.651,-182.223 359.964,-175.503 356.137,-185.78 356.137,-185.78"/>
</g>
<!-- Nodeset -->
<g id="node6" class="node"><title>Nodeset</title>
<polygon fill="none" stroke="black" points="533.408,-480 472.592,-480 472.592,-444 533.408,-444 533.408,-480"/>
<text text-anchor="middle" x="503" y="-457.8" font-family="Times,serif" font-size="14.00">Nodeset</text>
</g>
<!-- Property -->
<g id="node7" class="node"><title>Property</title>
<ellipse fill="none" stroke="black" cx="232" cy="-234" rx="40.3432" ry="18"/>
<text text-anchor="middle" x="232" y="-229.8" font-family="Times,serif" font-size="14.00">Property</text>
</g>
<!-- Property&#45;&gt;Reltype -->
<g id="edge5" class="edge"><title>Property&#45;&gt;Reltype</title>
<path fill="none" stroke="#5a9e1d" d="M237.443,-262.156C239.182,-287.295 239.186,-324.487 237.454,-349.679"/>
<polygon fill="#5a9e1d" stroke="#5a9e1d" points="237.442,-262.153 241.075,-251.806 237.017,-257.171 236.591,-252.189 236.591,-252.189 236.591,-252.189 237.017,-257.171 232.107,-252.572 237.442,-262.153 237.442,-262.153"/>
<polygon fill="#5a9e1d" stroke="#5a9e1d" points="237.435,-349.908 232.101,-359.489 237.01,-354.89 236.584,-359.871 236.584,-359.871 236.584,-359.871 237.01,-354.89 241.068,-360.254 237.435,-349.908 237.435,-349.908"/>
</g>
<!-- Type -->
<g id="node12" class="node"><title>Type</title>
<ellipse fill="none" stroke="black" cx="297" cy="-306" rx="27.4888" ry="18"/>
<text text-anchor="middle" x="297" y="-301.8" font-family="Times,serif" font-size="14.00">Type</text>
</g>
<!-- Property&#45;&gt;Type -->
<g id="edge4" class="edge"><title>Property&#45;&gt;Type</title>
<path fill="none" stroke="#597564" d="M259.098,-257.352C266.592,-264.878 274.453,-273.305 281.12,-280.956"/>
<polygon fill="#597564" stroke="#597564" points="258.927,-257.185 254.931,-246.974 255.355,-253.687 251.782,-250.189 251.782,-250.189 251.782,-250.189 255.355,-253.687 248.634,-253.404 258.927,-257.185 258.927,-257.185"/>
<polygon fill="#597564" stroke="#597564" points="281.267,-281.129 284.289,-291.671 284.496,-284.947 287.725,-288.765 287.725,-288.765 287.725,-288.765 284.496,-284.947 291.161,-285.859 281.267,-281.129 281.267,-281.129"/>
</g>
<!-- Propinstance&#45;&gt;Node -->
<g id="edge6" class="edge"><title>Propinstance&#45;&gt;Node</title>
<path fill="none" stroke="#47e3dc" d="M285.315,-186.591C292.105,-193.772 299.113,-201.673 305.095,-208.889"/>
<polygon fill="#47e3dc" stroke="#47e3dc" points="285.057,-186.324 281.322,-176.014 281.575,-182.736 278.093,-179.147 278.093,-179.147 278.093,-179.147 281.575,-182.736 274.863,-182.281 285.057,-186.324 285.057,-186.324"/>
<polygon fill="#47e3dc" stroke="#47e3dc" points="305.159,-208.968 307.912,-219.583 308.29,-212.866 311.421,-216.765 311.421,-216.765 311.421,-216.765 308.29,-212.866 314.929,-213.947 305.159,-208.968 305.159,-208.968"/>
</g>
<!-- Relinstance&#45;&gt;Node -->
<g id="edge7" class="edge"><title>Relinstance&#45;&gt;Node</title>
<path fill="none" stroke="#4c285c" d="M367.281,-187.667C360.435,-195.754 352.341,-204.648 344.753,-212.401"/>
<polygon fill="#4c285c" stroke="#4c285c" points="367.296,-187.649 377.122,-182.78 370.471,-183.786 373.645,-179.923 373.645,-179.923 373.645,-179.923 370.471,-183.786 370.169,-177.066 367.296,-187.649 367.296,-187.649"/>
<polygon fill="#4c285c" stroke="#4c285c" points="344.699,-212.455 334.433,-216.311 341.152,-215.979 337.605,-219.503 337.605,-219.503 337.605,-219.503 341.152,-215.979 340.777,-222.696 344.699,-212.455 344.699,-212.455"/>
</g>
<!-- Relpropinstance -->
<g id="node10" class="node"><title>Relpropinstance</title>
<ellipse fill="none" stroke="black" cx="383" cy="-90" rx="67.3579" ry="18"/>
<text text-anchor="middle" x="383" y="-85.8" font-family="Times,serif" font-size="14.00">Relpropinstance</text>
</g>
<!-- Relinstance&#45;&gt;Relpropinstance -->
<g id="edge8" class="edge"><title>Relinstance&#45;&gt;Relpropinstance</title>
<path fill="none" stroke="#635e25" d="M383,-135.64C383,-130.063 383,-124.132 383,-118.476"/>
<ellipse fill="none" stroke="#635e25" cx="383" cy="-139.697" rx="4" ry="4"/>
<polygon fill="#635e25" stroke="#635e25" points="383,-118.104 387.5,-108.104 383,-113.104 383,-108.104 383,-108.104 383,-108.104 383,-113.104 378.5,-108.104 383,-118.104 383,-118.104"/>
</g>
<!-- Relation -->
<g id="node14" class="node"><title>Relation</title>
<ellipse fill="none" stroke="black" cx="383" cy="-18" rx="40.1052" ry="18"/>
<text text-anchor="middle" x="383" y="-13.8" font-family="Times,serif" font-size="14.00">Relation</text>
</g>
<!-- Relpropinstance&#45;&gt;Relation -->
<g id="edge9" class="edge"><title>Relpropinstance&#45;&gt;Relation</title>
<path fill="none" stroke="#0e3cc0" d="M383,-61.6651C383,-56.6867 383,-51.4906 383,-46.5072"/>
<polygon fill="#0e3cc0" stroke="#0e3cc0" points="383,-61.6966 378.5,-71.6966 383,-66.6966 383,-71.6966 383,-71.6966 383,-71.6966 383,-66.6966 387.5,-71.6967 383,-61.6966 383,-61.6966"/>
<polygon fill="#0e3cc0" stroke="#0e3cc0" points="383,-46.1043 387.5,-36.1043 383,-41.1043 383,-36.1043 383,-36.1043 383,-36.1043 383,-41.1043 378.5,-36.1044 383,-46.1043 383,-46.1043"/>
</g>
<!-- Reltype&#45;&gt;Arcprop -->
<g id="edge11" class="edge"><title>Reltype&#45;&gt;Arcprop</title>
<path fill="none" stroke="#008276" d="M238.273,-404.038C238.908,-414.154 238.909,-425.807 238.275,-435.926"/>
<ellipse fill="none" stroke="#008276" cx="237.928" cy="-399.954" rx="4" ry="4"/>
<ellipse fill="#008276" stroke="#008276" cx="237.929" cy="-440.024" rx="4" ry="4"/>
</g>
<!-- Reltype&#45;&gt;Property -->
<g id="edge10" class="edge"><title>Reltype&#45;&gt;Property</title>
<path fill="none" stroke="#bdaca7" d="M226.68,-351.558C224.821,-326.444 224.774,-288.164 226.541,-262.393"/>
<ellipse fill="none" stroke="#bdaca7" cx="227.063" cy="-355.887" rx="4" ry="4"/>
<polygon fill="#bdaca7" stroke="#bdaca7" points="226.561,-262.153 231.893,-252.571 226.985,-257.171 227.409,-252.189 227.409,-252.189 227.409,-252.189 226.985,-257.171 222.925,-251.808 226.561,-262.153 226.561,-262.153"/>
</g>
<!-- Reltype&#45;&gt;Type -->
<g id="edge12" class="edge"><title>Reltype&#45;&gt;Type</title>
<path fill="none" stroke="#1abbf2" d="M252.41,-355.02C260.007,-346.839 268.632,-337.551 276.258,-329.338"/>
<ellipse fill="none" stroke="#1abbf2" cx="249.471" cy="-358.185" rx="4.00002" ry="4.00002"/>
<polygon fill="#1abbf2" stroke="#1abbf2" points="276.393,-329.192 286.495,-324.926 279.796,-325.528 283.198,-321.864 283.198,-321.864 283.198,-321.864 279.796,-325.528 279.9,-318.802 276.393,-329.192 276.393,-329.192"/>
</g>
<!-- Type&#45;&gt;Node -->
<g id="edge14" class="edge"><title>Type&#45;&gt;Node</title>
<path fill="none" stroke="#313f84" d="M305.073,-280.431C307.067,-274.362 309.212,-267.833 311.237,-261.67"/>
<ellipse fill="none" stroke="#313f84" cx="303.816" cy="-284.255" rx="4.00001" ry="4.00001"/>
<polygon fill="#313f84" stroke="#313f84" points="311.362,-261.289 318.759,-253.194 312.923,-256.539 314.484,-251.789 314.484,-251.789 314.484,-251.789 312.923,-256.539 310.208,-250.384 311.362,-261.289 311.362,-261.289"/>
</g>
<!-- Type&#45;&gt;Property -->
<g id="edge13" class="edge"><title>Type&#45;&gt;Property</title>
<path fill="none" stroke="#d28c43" d="M273.426,-286.146C265.004,-277.886 255.776,-268.09 248.096,-259.293"/>
<ellipse fill="none" stroke="#d28c43" cx="276.474" cy="-289.066" rx="4.00002" ry="4.00002"/>
<polygon fill="#d28c43" stroke="#d28c43" points="248.013,-259.194 244.978,-248.657 244.78,-255.381 241.546,-251.567 241.546,-251.567 241.546,-251.567 244.78,-255.381 238.114,-254.477 248.013,-259.194 248.013,-259.194"/>
</g>
<!-- Typeset -->
<g id="node13" class="node"><title>Typeset</title>
<polygon fill="none" stroke="black" points="611.504,-480 552.496,-480 552.496,-444 611.504,-444 611.504,-480"/>
<text text-anchor="middle" x="582" y="-457.8" font-family="Times,serif" font-size="14.00">Typeset</text>
</g>
</g>
</svg>
